<?xml version="1.0" encoding="UTF-8"?>
<svg version="1.1" xmlns="http://www.w3.org/2000/svg" width="512" height="512">
<path d="M0 0 C168.96 0 337.92 0 512 0 C512 168.96 512 337.92 512 512 C343.04 512 174.08 512 0 512 C0 343.04 0 174.08 0 0 Z " fill="#323232" transform="translate(0,0)"/>
<path d="M0 0 C3.88003923 2.79461054 7.47255431 5.77427984 11 9 C11.83917969 9.75796875 12.67835938 10.5159375 13.54296875 11.296875 C21.26656452 18.62531006 28.0668239 27.2260123 32.9140625 36.73828125 C36.75846325 42.74965695 42.84841904 43.61853102 49.375 45.25 C71.96534413 51.24472857 93.81521073 63.15568484 106.10302734 83.85839844 C118.00293466 105.32593725 122.58592457 131.44992675 116.25952148 155.55957031 C115.04279307 159.46905833 113.62721322 163.24369028 112 167 C111.5663916 168.01852051 111.5663916 168.01852051 111.12402344 169.05761719 C101.49291213 190.86893792 83.08354694 206.74689694 61.125 215.3125 C46.52893918 220.91032992 31.82194007 221.42679912 16.40625 221.29296875 C14.47855971 221.28735754 12.55086508 221.28309468 10.62316895 221.28010559 C5.60581163 221.26877672 0.58872444 221.23941591 -4.42852783 221.20599365 C-9.57080433 221.17503147 -14.71312545 221.16154498 -19.85546875 221.14648438 C-29.90376302 221.11453196 -39.95185885 221.06348467 -50 221 C-49.32926937 204.09462276 -48.21002707 187.24520078 -46.9375 170.375 C-46.65773346 166.64092398 -46.37888557 162.90678437 -46.10169983 159.17251587 C-45.93083891 156.87305707 -45.75841585 154.57371367 -45.58421326 152.27450562 C-45.50735794 151.2446756 -45.43050262 150.21484558 -45.35131836 149.15380859 C-45.28327499 148.25197845 -45.21523163 147.35014832 -45.14512634 146.42098999 C-45.01702137 144.28394956 -45 142.14087661 -45 140 C-52.72565777 153.57812461 -60.34833288 167.20881946 -67.88110352 180.89453125 C-68.55482667 182.11850257 -69.22857349 183.34246086 -69.90234375 184.56640625 C-70.23647781 185.17340363 -70.57061188 185.780401 -70.91487122 186.40579224 C-75.38260482 194.51695386 -79.88749718 202.60751055 -84.39208984 210.69824219 C-84.98328613 211.76075195 -85.57448242 212.82326172 -86.18359375 213.91796875 C-86.70493896 214.85406982 -87.22628418 215.7901709 -87.76342773 216.75463867 C-88.53503019 218.15571029 -89.2846858 219.5693716 -90 221 C-101.44090076 221.06993855 -112.8817495 221.12303177 -124.32282162 221.15543652 C-129.63708561 221.17100003 -134.95120186 221.19206519 -140.26538086 221.22631836 C-145.40717047 221.25924772 -150.54881922 221.27692276 -155.69070625 221.28463173 C-157.63881201 221.29011565 -159.58691127 221.30082154 -161.53495598 221.31719017 C-178.11271709 221.45076982 -193.92509245 220.62484454 -209 213 C-209.84820312 212.58105469 -210.69640625 212.16210938 -211.5703125 211.73046875 C-228.39767985 202.57827993 -239.50592188 185.29187878 -244.83886719 167.29882812 C-250.53214926 146.20568469 -246.08463335 125.82406481 -235.8125 106.875 C-226.56882016 91.60196527 -210.96564748 81.70633945 -193.86987305 77.33081055 C-191.84877519 76.83665061 -189.82447182 76.36122657 -187.796875 75.89453125 C-185.91742188 75.45173828 -185.91742188 75.45173828 -184 75 C-182.74703125 74.75636719 -181.4940625 74.51273437 -180.203125 74.26171875 C-176.81608878 73.27909173 -176.81608878 73.27909173 -175.19921875 70.3046875 C-173.97533829 66.93203972 -172.8531574 63.55879374 -171.8125 60.125 C-166.39113906 43.15193732 -157.32550317 27.84101851 -145 15 C-143.7625 13.700625 -143.7625 13.700625 -142.5 12.375 C-141.2625 11.199375 -141.2625 11.199375 -140 10 C-139.10474609 9.12988281 -139.10474609 9.12988281 -138.19140625 8.2421875 C-123.08263606 -5.8962947 -105.03040261 -13.75181883 -85 -18 C-84.22317871 -18.1757959 -83.44635742 -18.3515918 -82.64599609 -18.53271484 C-54.22800698 -23.55135584 -23.76893579 -15.73708845 0 0 Z " fill="#D2D2D2" transform="translate(320,106)"/>
<path d="M0 0 C8.05869517 6.40799552 14.33211073 13.38147425 20 22 C21.10214844 21.72285156 22.20429688 21.44570312 23.33984375 21.16015625 C28.40801538 19.89395004 33.48343943 18.65922977 38.5625 17.4375 C39.46935547 17.21642578 40.37621094 16.99535156 41.31054688 16.76757812 C71.71899716 9.46866801 106.63697012 13.29744179 133.5703125 29.7109375 C148.34818453 39.39894117 167.94689892 52.3757078 174.91552734 69.21191406 C176.59576641 73.04188235 177.88988556 75.40669995 181.65405273 77.41845703 C184.99066298 78.59986537 188.33335086 79.57565979 191.75 80.5 C206.72492701 85.01104949 220.13443028 90.5940837 232 101 C232.7321875 101.59039062 233.464375 102.18078125 234.21875 102.7890625 C249.92191512 115.85710744 262.18539296 137.09056343 264.77734375 157.45654297 C267.35385626 186.8886782 263.59911721 214.60774277 245 238.3125 C243.67572035 239.8826807 242.34264681 241.44549571 241 243 C240.39800781 243.74636719 239.79601562 244.49273437 239.17578125 245.26171875 C225.59569912 261.57489917 203.42764321 274.29054895 182.25784302 276.80050468 C178.26631213 277.15318275 174.28370912 277.13009441 170.27929688 277.11352539 C168.8730304 277.11374443 168.8730304 277.11374443 167.43835449 277.1139679 C164.36512877 277.11327584 161.29196502 277.10551678 158.21875 277.09765625 C156.07784051 277.09578956 153.93693058 277.09436684 151.79602051 277.09336853 C146.18024502 277.08956316 140.56449568 277.07974987 134.94873047 277.06866455 C129.21061558 277.05840776 123.47249643 277.05386178 117.734375 277.04882812 C106.48957189 277.03812574 95.24478812 277.02107323 84 277 C84.12016479 278.27829178 84.24032959 279.55658356 84.36413574 280.87361145 C84.43172844 281.59265058 84.49932114 282.3116897 84.5689621 283.05251789 C84.86353158 285.25671278 84.86353158 285.25671278 87.17382812 287.0222168 C88.11677734 287.49312744 89.05972656 287.96403809 90.03125 288.44921875 C91.07023438 288.98740234 92.10921875 289.52558594 93.1796875 290.08007812 C94.27539062 290.61052734 95.37109375 291.14097656 96.5 291.6875 C98.63547403 292.77462691 100.77089154 293.86186484 102.90625 294.94921875 C103.93492187 295.4601709 104.96359375 295.97112305 106.0234375 296.49755859 C110.08337574 298.54684172 114.04969319 300.74799719 118 303 C117.36170853 306.77262977 115.64317899 309.29440468 113.49609375 312.42578125 C112.77147949 313.49006348 112.04686523 314.5543457 111.30029297 315.65087891 C110.92007996 316.20406799 110.53986694 316.75725708 110.14813232 317.32720947 C108.3039788 320.01407968 106.48452518 322.71764076 104.66015625 325.41796875 C103.12888211 327.67534769 101.59559341 329.93135637 100.0625 332.1875 C99.22782833 333.41664205 98.39319367 334.64580923 97.55859375 335.875 C92.20927158 343.75240806 86.85496593 351.62642775 81.5 359.5 C79.40014455 362.58783399 77.30035885 365.67571535 75.20068359 368.76367188 C73.68035404 370.99947047 72.15984945 373.23514927 70.63916016 375.47070312 C68.60251279 378.46499809 66.56692636 381.46001221 64.5319519 384.45544434 C63.72392974 385.64453654 62.9156042 386.83342266 62.10696411 388.02209473 C57.94945418 394.13414943 53.81545703 400.25842344 49.7578125 406.4375 C49.10901123 407.42331055 48.46020996 408.40912109 47.79174805 409.42480469 C46.58388331 411.26514843 45.38191088 413.10937729 44.18676758 414.95800781 C43.65978271 415.76077148 43.13279785 416.56353516 42.58984375 417.390625 C42.13472412 418.09219727 41.67960449 418.79376953 41.21069336 419.51660156 C40.81116455 420.00612305 40.41163574 420.49564453 40 421 C39.34 421 38.68 421 38 421 C41.09441474 402.49421018 44.63421381 384.08163444 48.22827148 365.66796875 C49.03817714 361.51843042 49.84412957 357.36813513 50.64899731 353.21761703 C51.27462193 349.99350488 51.90217233 346.76976996 52.53032875 343.54615021 C52.82873218 342.01364553 53.12655865 340.4810284 53.42378807 338.94829559 C53.83550704 336.82679819 54.24979566 334.70581874 54.66479492 332.58496094 C55.01642952 330.78040436 55.01642952 330.78040436 55.37516785 328.93939209 C56 326 56 326 57 323 C56.14841309 322.73719238 55.29682617 322.47438477 54.41943359 322.20361328 C50.87335202 320.95542093 47.64453121 319.43531391 44.2890625 317.7421875 C43.67606293 317.43427277 43.06306335 317.12635803 42.43148804 316.80911255 C40.49406342 315.83484937 38.5595124 314.85503083 36.625 313.875 C35.30357212 313.2092647 33.98195924 312.54389647 32.66015625 311.87890625 C29.43795475 310.25684177 26.21830407 308.62978626 23 307 C23.60388127 302.90992847 24.95217828 299.87322973 26.94140625 296.26171875 C27.52470703 295.19501953 28.10800781 294.12832031 28.70898438 293.02929688 C29.32064453 291.92650391 29.93230469 290.82371094 30.5625 289.6875 C31.17802734 288.56537109 31.79355469 287.44324219 32.42773438 286.28710938 C33.94592094 283.52142067 35.47017705 280.75926391 37 278 C36.0355043 278.00666183 35.07100861 278.01332367 34.07728577 278.02018738 C24.91446043 278.0814384 15.75167752 278.12618128 6.58869267 278.15543652 C1.87975993 278.17098333 -2.82900538 278.19201646 -7.5378418 278.22631836 C-12.09608631 278.25930922 -16.65417148 278.27693519 -21.21252632 278.28463173 C-22.93734808 278.29010494 -24.66216275 278.30078861 -26.38691521 278.31719017 C-51.43878897 278.54558856 -76.48610996 273.78042684 -96 257 C-96.66257812 256.49210937 -97.32515625 255.98421875 -98.0078125 255.4609375 C-112.39366731 244.00866877 -120.86239426 224.08532716 -123.6796875 206.28515625 C-125.86911842 183.83013918 -122.34963342 159.75102872 -108.0625 141.5 C-106.7276599 139.9827758 -105.37271455 138.48304488 -104 137 C-103.19691406 136.06929687 -102.39382812 135.13859375 -101.56640625 134.1796875 C-97.09446069 129.04231644 -97.09446069 129.04231644 -95 127 C-94.34 127 -93.68 127 -93 127 C-93 126.34 -93 125.68 -93 125 C-93.66 125 -94.32 125 -95 125 C-97.54781813 122.53481381 -99.736375 119.72522697 -102 117 C-102.65742187 116.22914063 -103.31484375 115.45828125 -103.9921875 114.6640625 C-113.15542393 103.64678602 -118.1793509 92.62487674 -122 79 C-122.33 78.01 -122.66 77.02 -123 76 C-124.8789128 52.14065428 -119.34964935 31.38099841 -104 13 C-103.43667969 12.27425781 -102.87335938 11.54851562 -102.29296875 10.80078125 C-77.54766767 -19.84485926 -31.26654666 -20.94770052 0 0 Z M-3 53 C-4.010625 53.763125 -5.02125 54.52625 -6.0625 55.3125 C-10.57822221 59.44390543 -14.25865613 64.16907177 -18 69 C-18.61101562 69.78375 -19.22203125 70.5675 -19.8515625 71.375 C-29.42025952 84.30803342 -35.83145468 99.91009138 -40.2265625 115.29296875 C-41 117 -41 117 -44 119 C-46.81109431 119.66024677 -49.60645341 120.25499267 -52.4375 120.8125 C-71.19665011 124.76553462 -87.76626982 133.6856031 -99.33984375 149.36328125 C-105.13749254 158.57131169 -108.90570462 168.3352035 -111 179 C-111.18046875 179.76828125 -111.3609375 180.5365625 -111.546875 181.328125 C-114.71803797 200.02705145 -109.94773344 220.52944114 -99 236 C-95.32848013 240.66378846 -91.23649013 244.85226315 -87 249 C-86.40703125 249.62519531 -85.8140625 250.25039063 -85.203125 250.89453125 C-72.76067804 263.04836475 -52.41236396 266.18687379 -35.83007812 266.11352539 C-34.51159378 266.11374443 -34.51159378 266.11374443 -33.16647339 266.1139679 C-30.28803967 266.11327641 -27.40967229 266.10552009 -24.53125 266.09765625 C-22.52486201 266.09578935 -20.51847357 266.09436673 -18.51208496 266.09336853 C-13.25141118 266.08956476 -7.99076534 266.07975288 -2.73010254 266.06866455 C2.64607363 266.05840428 8.02225435 266.05386105 13.3984375 266.04882812 C23.93230389 266.03812857 34.46614962 266.02107802 45 266 C45.39071686 265.2716243 45.78143372 264.5432486 46.18399048 263.7928009 C47.66547759 261.03236938 49.14803092 258.27251372 50.6312561 255.51301575 C51.57601157 253.75458796 52.51958961 251.99552772 53.46313477 250.2364502 C57.35108024 243.00517916 61.31333447 235.82259733 65.375 228.6875 C65.92381332 227.72315033 66.47262665 226.75880066 67.03807068 225.76522827 C67.53468704 224.89266388 68.03130341 224.02009949 68.54296875 223.12109375 C73.37873145 214.59619249 78.08357013 205.99831447 82.79638672 197.4050293 C83.12809372 196.80134018 83.45980072 196.19765106 83.80155945 195.57566833 C84.70560186 193.93026086 85.60810118 192.28400583 86.51049805 190.63769531 C88 188 88 188 90 185 C89.61144527 190.8789343 89.22201851 196.75781002 88.83169556 202.6366272 C88.69419615 204.7077259 88.55680554 206.77883183 88.41952515 208.84994507 C87.06658029 229.24518271 87.06658029 229.24518271 86.35546875 238.94140625 C86.26249512 240.21081055 86.16952148 241.48021484 86.07373047 242.78808594 C85.90487002 245.06628164 85.73349432 247.34429292 85.55908203 249.62207031 C85.44669189 251.13365723 85.44669189 251.13365723 85.33203125 252.67578125 C85.26733643 253.52052002 85.2026416 254.36525879 85.13598633 255.2355957 C85.02177593 257.55732696 84.98634137 259.84942269 84.99150085 262.17277527 C84.99430557 263.43575943 84.99711029 264.69874359 85 266 C96.06701873 266.069922 107.13398375 266.12302353 118.2011795 266.15543652 C123.34171933 266.17100357 128.48210656 266.19207542 133.62255859 266.22631836 C138.59576387 266.25923482 143.5688236 266.27692012 148.54212952 266.28463173 C150.42686754 266.29011792 152.31159881 266.30082848 154.1962738 266.31719017 C181.62789489 266.54557464 207.06993723 260.11797216 227.5 240.8125 C236.51648492 231.40037255 242.89789164 220.90302562 248 209 C248.27392578 208.38157227 248.54785156 207.76314453 248.83007812 207.12597656 C256.33321896 189.44000173 256.08164161 162.78367304 249 145 C238.97817345 121.12583351 222.95799888 105.07563072 199 95 C194.4904885 93.30351784 189.91746537 91.81105106 185.32421875 90.359375 C184.62087402 90.13701172 183.9175293 89.91464844 183.19287109 89.68554688 C181.65175237 89.20375425 180.10748416 88.73197723 178.56103516 88.26757812 C177.76358887 88.01943359 176.96614258 87.77128906 176.14453125 87.515625 C175.42241455 87.29680664 174.70029785 87.07798828 173.95629883 86.85253906 C169.88679353 85.07908187 168.06168017 81.66630382 165.73999023 78.01196289 C160.55944695 69.86732061 154.81786761 62.81786761 148 56 C147.27296875 55.27296875 146.5459375 54.5459375 145.796875 53.796875 C135.10745967 43.7409065 122.50343448 37.36618569 109 32 C108.21496094 31.67257813 107.42992187 31.34515625 106.62109375 31.0078125 C68.87411029 16.67725518 26.86586578 27.94768035 -3 53 Z " fill="#020202" transform="translate(185,61)"/>
<path d="M0 0 C5.41134499 4.65683962 10.37458161 9.82800002 14.23046875 15.8671875 C14.23046875 16.5271875 14.23046875 17.1871875 14.23046875 17.8671875 C12.49106128 19.30772771 10.68575681 20.66903215 8.85546875 21.9921875 C7.74401479 22.80883957 6.63334887 23.62656513 5.5234375 24.4453125 C4.6869165 25.05922852 4.6869165 25.05922852 3.83349609 25.68554688 C-14.98752855 39.55910144 -36.46124618 61.71609026 -40.51953125 85.91015625 C-41.31304519 90.12633328 -42.21553384 93.30983396 -44.76953125 96.8671875 C-50.75660376 100.03981304 -57.54114393 101.09952649 -64.14697266 102.29492188 C-66.63739929 102.83835513 -68.80780104 103.5936752 -71.15625 104.5703125 C-74.80711355 105.8806765 -76.22234581 106.27744004 -79.76953125 104.8671875 C-81.83203125 103.37890625 -81.83203125 103.37890625 -83.76953125 101.5546875 C-85.9187387 99.56215125 -87.93511696 97.7500659 -90.33203125 96.0546875 C-96.59298442 90.43588337 -100.19995692 83.49933153 -103.14453125 75.7421875 C-103.39517334 75.08573242 -103.64581543 74.42927734 -103.90405273 73.75292969 C-109.53520122 58.04921871 -108.32560034 38.55180597 -101.46191406 23.56420898 C-93.24377427 6.54645724 -80.13114832 -4.23960125 -62.76953125 -11.1328125 C-41.44444954 -17.95957849 -17.73258717 -13.65584287 0 0 Z " fill="#FDD500" transform="translate(180.76953125,73.1328125)"/>
<path d="M0 0 C0.33 0 0.66 0 1 0 C1.15034494 8.94206371 0.77302457 17.78333511 0.07402039 26.69453049 C-0.0988063 28.90047564 -0.26516558 31.10683301 -0.43005371 33.31338501 C-0.84049661 38.79012507 -1.26070618 44.26610432 -1.68218994 49.74200439 C-2.03960941 54.38845752 -2.39239634 59.03521747 -2.73908997 63.68248367 C-2.90083442 65.82664593 -3.06909339 67.97022709 -3.2376709 70.11386108 C-3.92161313 79.10021744 -4.12755686 87.99296741 -4 97 C-3.25109497 97.40496704 -2.50218994 97.80993408 -1.73059082 98.22717285 C1.32574751 99.88004622 4.38161448 101.53378962 7.4375 103.1875 C8.50677734 103.76564453 9.57605469 104.34378906 10.67773438 104.93945312 C16.80583806 108.25650008 22.91856212 111.59808934 29 115 C23.56943797 123.67770221 17.88129107 132.16239298 12.125 140.625 C11.1907852 142.00096781 10.25670532 143.37702723 9.32275391 144.75317383 C6.98486677 148.19707942 4.64509361 151.63969797 2.30444336 155.08172607 C1.09399528 156.86177346 -0.11616151 158.64201834 -1.32617188 160.42236328 C-4.79579357 165.52710308 -8.26664359 170.63100605 -11.73828125 175.734375 C-29.47433657 201.79632293 -29.47433657 201.79632293 -47 228 C-48.3847914 223.84562581 -47.30727733 220.39507312 -46.46118164 216.21411133 C-46.2857634 215.31634476 -46.11034515 214.41857819 -45.92961121 213.49360657 C-45.34702598 210.52160701 -44.75363628 207.55187271 -44.16015625 204.58203125 C-43.7544971 202.52378725 -43.34951191 200.46541032 -42.94517517 198.40690613 C-41.87837344 192.98535556 -40.80240445 187.56566339 -39.72454834 182.14630127 C-38.62660293 176.61750288 -37.53729288 171.08700452 -36.44726562 165.55664062 C-34.30664892 154.70274105 -32.15634859 143.85078423 -30 133 C-30.92293854 132.70118927 -31.84587708 132.40237854 -32.79678345 132.09451294 C-36.27886889 130.90471278 -39.42618017 129.39963386 -42.7109375 127.7421875 C-43.32393707 127.43427277 -43.93693665 127.12635803 -44.56851196 126.80911255 C-46.50593658 125.83484937 -48.4404876 124.85503083 -50.375 123.875 C-51.69642788 123.2092647 -53.01804076 122.54389647 -54.33984375 121.87890625 C-57.56204525 120.25684177 -60.78169593 118.62978626 -64 117 C-62.67977581 113.54935291 -61.17793551 110.31759724 -59.41796875 107.0703125 C-58.90516357 106.12260986 -58.3923584 105.17490723 -57.86401367 104.19848633 C-57.0341394 102.6771106 -57.0341394 102.6771106 -56.1875 101.125 C-55.60782471 100.05854248 -55.02814941 98.99208496 -54.4309082 97.89331055 C-50.06096943 89.88067305 -45.59401675 81.92623452 -41.08422852 73.99169922 C-36.70491116 66.27696776 -32.40285719 58.52123886 -28.125 50.75 C-27.7919989 50.14511749 -27.4589978 49.54023499 -27.11590576 48.91702271 C-26.78294495 48.31220062 -26.44998413 47.70737854 -26.10693359 47.08422852 C-25.43198328 45.85822625 -24.7570158 44.63223342 -24.08203125 43.40625 C-23.74713684 42.79792831 -23.41224243 42.18960663 -23.06719971 41.56285095 C-19.3325751 34.78249297 -15.57404508 28.0154503 -11.8125 21.25 C-11.20100098 20.15010742 -10.58950195 19.05021484 -9.95947266 17.91699219 C-8.8267968 15.88013234 -7.69399317 13.84334354 -6.56103516 11.80664062 C-4.37256138 7.87190578 -2.18607855 3.93606598 0 0 Z " fill="#FED600" transform="translate(273,250)"/>
<path d="M0 0 C0.99 0 1.98 0 3 0 C2.10810867 25.23966434 2.10810867 25.23966434 1.4375 34.1875 C0.97143193 41.44484561 1 48.7277043 1 56 C14.86 63.425 14.86 63.425 29 71 C28.15483699 75.22581507 27.85467867 76.65288055 25.61328125 79.921875 C25.09741455 80.6847583 24.58154785 81.4476416 24.05004883 82.23364258 C23.47665771 83.06404053 22.9032666 83.89443848 22.3125 84.75 C21.05098295 86.60211556 19.79065361 88.45504043 18.53125 90.30859375 C17.82355469 91.34741699 17.11585938 92.38624023 16.38671875 93.45654297 C13.63927558 97.51538469 10.96293273 101.620211 8.28125 105.72265625 C6.78866578 107.99646645 5.29499456 110.26955826 3.8008728 112.5423584 C2.80781304 114.05702346 1.81808797 115.57388005 0.83169556 117.09289551 C-0.56491223 119.24154092 -1.97429259 121.3812626 -3.38671875 123.51953125 C-3.80808105 124.17478287 -4.22944336 124.83003448 -4.66357422 125.50514221 C-5.69817808 127.05798324 -6.84061759 128.53796278 -8 130 C-8.99 130 -9.98 130 -11 130 C-10.40786804 120.61189107 -9.29841858 111.36772065 -7.9375 102.0625 C-7.56775158 99.53311377 -7.20172586 97.0031799 -6.83984375 94.47265625 C-6.67863037 93.37187744 -6.51741699 92.27109863 -6.35131836 91.13696289 C-5.88870265 87.53230855 -5.88870265 87.53230855 -6 82 C-15.57 77.05 -25.14 72.1 -35 67 C-34.08473472 62.4236736 -33.00089061 59.75517396 -30.82421875 55.72265625 C-30.50285446 55.12309616 -30.18149017 54.52353607 -29.85038757 53.9058075 C-28.80241573 51.95455615 -27.74519039 50.00849784 -26.6875 48.0625 C-25.9593071 46.71217877 -25.23160918 45.3615905 -24.50439453 44.01074219 C-22.68411019 40.63352412 -20.85585986 37.26069538 -19.02496338 33.88922119 C-17.50561358 31.08874277 -15.99354967 28.28433792 -14.48046875 25.48046875 C-13.44599975 23.56994022 -12.41088968 21.65975861 -11.375 19.75 C-10.91569092 18.90187744 -10.45638184 18.05375488 -9.9831543 17.17993164 C-8.67174952 14.77708883 -7.34066144 12.38662941 -6 10 C-5.48469727 9.06736328 -4.96939453 8.13472656 -4.43847656 7.17382812 C-3.91479492 6.25537109 -3.39111328 5.33691406 -2.8515625 4.390625 C-2.37799316 3.55047852 -1.90442383 2.71033203 -1.41650391 1.84472656 C-0.71533447 0.93158691 -0.71533447 0.93158691 0 0 Z " fill="#417094" transform="translate(258,296)"/>
<path d="M0 0 C3 1.9375 3 1.9375 5 5 C5.43462981 8.25682602 5.14186579 10.91868379 4 14 C1.11759964 16.75138217 -0.53993598 18 -4.5625 18 C-7.80104286 16.67136703 -9.66766636 15.66552415 -12 13 C-12.72212782 9.85729972 -12.70960249 7.14417364 -12 4 C-8.57473068 -0.25563764 -5.29763755 -0.85140604 0 0 Z " fill="#052078" transform="translate(307,414)"/>
<path d="M0 0 C1.31291016 -0.05607422 1.31291016 -0.05607422 2.65234375 -0.11328125 C5.0625 0.3125 5.0625 0.3125 6.84765625 2.12109375 C8.6719006 5.41177246 8.57339844 7.6084863 8.0625 11.3125 C6.67372631 14.02476315 5.42951297 15.20277105 3.0625 17.3125 C-1.1412312 18.29635198 -2.62381961 17.50419357 -6.3125 15.25 C-8.9375 12.3125 -8.9375 12.3125 -9.4375 8.75 C-8.99720664 5.72298318 -8.66101706 3.80202464 -6.9375 1.3125 C-4.4933206 0.0904103 -2.72720128 0.07608932 0 0 Z " fill="#04207A" transform="translate(401.9375,354.6875)"/>
<path d="M0 0 C3.93079935 0.56154276 5.20537247 0.85423385 7.9375 3.5625 C8.75883394 6.95545884 8.58127165 10.14211323 7.9375 13.5625 C5.39622167 16.70172618 3.88977601 17.40378733 -0.0625 18.0625 C-3.89710553 17.42339908 -5.46570527 16.45607127 -8.0625 13.5625 C-9.1875 10.1875 -9.1875 10.1875 -9.0625 6.5625 C-6.697666 2.36682677 -4.85416454 0.19998431 0 0 Z " fill="#042079" transform="translate(368.0625,433.4375)"/>
<path d="M0 0 C3.67199407 0.51536759 5.63937168 1.26466658 8.5625 3.5 C10.13185594 6.63871188 9.91451103 9.03855822 9.5625 12.5 C6.97033917 16.19186542 5.52100936 17.32883761 1.0625 18.125 C-3.39600936 17.32883761 -4.84533917 16.19186542 -7.4375 12.5 C-8.10444827 8.35009967 -7.84893691 6.27350139 -5.875 2.5625 C-3.4375 0.5 -3.4375 0.5 0 0 Z " fill="#03207A" transform="translate(324.4375,361.5)"/>
<path d="M0 0 C2.5 1.5 2.5 1.5 4 4 C4.7152453 9.00671711 4.81148802 10.85436985 1.875 15 C-1 17 -1 17 -3.9375 17.625 C-8.15546616 16.76419058 -10.11440429 15.16041435 -13 12 C-13.6937386 8.30006082 -13.27296546 6.55833845 -11.625 3.1875 C-8.6284318 -0.84634181 -4.70437952 -0.6415063 0 0 Z " fill="#042079" transform="translate(155,442)"/>
<path d="M0 0 C2.9375 0.875 2.9375 0.875 5 3 C5.60157198 6.40317861 5.66976702 9.60651377 5 13 C3.46399522 15.13227993 2.39542253 15.86300905 -0.0859375 16.72265625 C-5.99485349 17.59991852 -5.99485349 17.59991852 -8.734375 15.96484375 C-11.38900774 13.16853117 -11.99686653 11.18174114 -12.0625 7.375 C-9.94189582 0.6389632 -6.96145378 -0.85491538 0 0 Z " fill="#042079" transform="translate(194,394)"/>
<path d="M0 0 C2.02734375 0.63671875 2.02734375 0.63671875 4.08984375 2.26171875 C5.4194066 5.62994463 5.46851707 8.04430741 5.02734375 11.63671875 C3.58984375 14.57421875 3.58984375 14.57421875 1.02734375 16.63671875 C-2.1410271 17.40410398 -4.81131854 17.45460612 -7.97265625 16.63671875 C-10.86963322 13.66908381 -11.79069789 11.62738096 -12.53515625 7.57421875 C-11.97265625 4.63671875 -11.97265625 4.63671875 -10.03515625 1.69921875 C-6.27246135 -0.83484108 -4.35536275 -0.78990772 0 0 Z " fill="#042079" transform="translate(130.97265625,363.36328125)"/>
<path d="M0 0 C2.85453818 0.54620947 4.16300521 0.95154972 6.4375 2.8125 C7.66493397 5.84017046 7.77249883 7.87875952 7.375 11.125 C5.11029412 15.75735294 5.11029412 15.75735294 2.375 17.125 C-0.55921006 17.40895581 -2.77598834 17.62048029 -5.625 17.125 C-8.58841004 14.60610147 -9.4591401 12.99115726 -10.1875 9.1875 C-9.08697714 3.19576441 -6.25515634 -0.43877932 0 0 Z " fill="#04207A" transform="translate(364.625,384.875)"/>
<path d="M0 0 C3 1.625 3 1.625 5 4 C5.74389165 7.80211288 5.08533164 9.79054961 3.625 13.375 C0.66278487 16.33721513 -0.04800175 16.46090372 -4.0625 16.625 C-7.24873446 16.59625202 -8.48615044 16.50596152 -10.78125 14.24609375 C-12.78330739 10.55640465 -12.67280471 7.08322861 -12 3 C-9.13792992 -0.93534636 -4.50323559 -0.79363954 0 0 Z " fill="#04207A" transform="translate(190,351)"/>
<path d="M0 0 C0.33 0 0.66 0 1 0 C1 2.97 1 5.94 1 9 C0.34 8.01 -0.32 7.02 -1 6 C-1.99 6.66 -2.98 7.32 -4 8 C-2.87548273 5.0280615 -1.77706209 2.66559313 0 0 Z " fill="#ABA97C" transform="translate(259,297)"/>
<path d="M0 0 C0.33 0 0.66 0 1 0 C1.25 2.25 1.25 2.25 1 5 C-1 7.3125 -1 7.3125 -3 9 C-3.66 8.67 -4.32 8.34 -5 8 C-4.19185349 6.66402348 -3.37836819 5.331275 -2.5625 4 C-2.11003906 3.2575 -1.65757812 2.515 -1.19140625 1.75 C-0.79824219 1.1725 -0.40507812 0.595 0 0 Z " fill="#0C0A00" transform="translate(275,245)"/>
</svg>
